<mxfile host="app.diagrams.net" modified="2023-11-15T09:39:58.818Z" agent="Mozilla/5.0 (Windows NT 10.0; Win64; x64) AppleWebKit/537.36 (KHTML, like Gecko) Chrome/119.0.0.0 Safari/537.36" etag="FLtiD3CCBnXL6z-ThKw4" version="22.1.1" type="github">
  <diagram name="Page-1" id="Vu76jnpYO23-EsD8mGh3">
    <mxGraphModel dx="1434" dy="750" grid="1" gridSize="10" guides="1" tooltips="1" connect="1" arrows="1" fold="1" page="1" pageScale="1" pageWidth="850" pageHeight="1100" math="0" shadow="0">
      <root>
        <mxCell id="0" />
        <mxCell id="1" parent="0" />
        <mxCell id="gov-FkDU6LldLdoUT6Mm-5" style="edgeStyle=orthogonalEdgeStyle;rounded=0;orthogonalLoop=1;jettySize=auto;html=1;entryX=0.5;entryY=0;entryDx=0;entryDy=0;" edge="1" parent="1" source="gov-FkDU6LldLdoUT6Mm-1" target="gov-FkDU6LldLdoUT6Mm-3">
          <mxGeometry relative="1" as="geometry" />
        </mxCell>
        <mxCell id="gov-FkDU6LldLdoUT6Mm-1" value="Sensor_Simulator" style="whiteSpace=wrap;html=1;aspect=fixed;" vertex="1" parent="1">
          <mxGeometry x="330" y="40" width="140" height="140" as="geometry" />
        </mxCell>
        <mxCell id="gov-FkDU6LldLdoUT6Mm-3" value="Kafka" style="whiteSpace=wrap;html=1;" vertex="1" parent="1">
          <mxGeometry x="160" y="240" width="480" height="60" as="geometry" />
        </mxCell>
        <mxCell id="gov-FkDU6LldLdoUT6Mm-13" style="edgeStyle=orthogonalEdgeStyle;rounded=0;orthogonalLoop=1;jettySize=auto;html=1;entryX=0.25;entryY=1;entryDx=0;entryDy=0;" edge="1" parent="1" source="gov-FkDU6LldLdoUT6Mm-8" target="gov-FkDU6LldLdoUT6Mm-3">
          <mxGeometry relative="1" as="geometry" />
        </mxCell>
        <mxCell id="gov-FkDU6LldLdoUT6Mm-8" value="Consumer" style="whiteSpace=wrap;html=1;aspect=fixed;" vertex="1" parent="1">
          <mxGeometry x="160" y="360" width="80" height="80" as="geometry" />
        </mxCell>
        <mxCell id="gov-FkDU6LldLdoUT6Mm-14" style="edgeStyle=orthogonalEdgeStyle;rounded=0;orthogonalLoop=1;jettySize=auto;html=1;entryX=0.5;entryY=1;entryDx=0;entryDy=0;" edge="1" parent="1" source="gov-FkDU6LldLdoUT6Mm-10" target="gov-FkDU6LldLdoUT6Mm-3">
          <mxGeometry relative="1" as="geometry" />
        </mxCell>
        <mxCell id="gov-FkDU6LldLdoUT6Mm-10" value="Consumer" style="whiteSpace=wrap;html=1;aspect=fixed;" vertex="1" parent="1">
          <mxGeometry x="280" y="360" width="80" height="80" as="geometry" />
        </mxCell>
        <mxCell id="gov-FkDU6LldLdoUT6Mm-15" style="edgeStyle=orthogonalEdgeStyle;rounded=0;orthogonalLoop=1;jettySize=auto;html=1;exitX=0.5;exitY=0;exitDx=0;exitDy=0;" edge="1" parent="1" source="gov-FkDU6LldLdoUT6Mm-11">
          <mxGeometry relative="1" as="geometry">
            <mxPoint x="400" y="300" as="targetPoint" />
          </mxGeometry>
        </mxCell>
        <mxCell id="gov-FkDU6LldLdoUT6Mm-11" value="Consumer" style="whiteSpace=wrap;html=1;aspect=fixed;" vertex="1" parent="1">
          <mxGeometry x="440" y="360" width="80" height="80" as="geometry" />
        </mxCell>
        <mxCell id="gov-FkDU6LldLdoUT6Mm-16" style="edgeStyle=orthogonalEdgeStyle;rounded=0;orthogonalLoop=1;jettySize=auto;html=1;entryX=0.75;entryY=1;entryDx=0;entryDy=0;" edge="1" parent="1" source="gov-FkDU6LldLdoUT6Mm-12" target="gov-FkDU6LldLdoUT6Mm-3">
          <mxGeometry relative="1" as="geometry" />
        </mxCell>
        <mxCell id="gov-FkDU6LldLdoUT6Mm-12" value="Consumer" style="whiteSpace=wrap;html=1;aspect=fixed;" vertex="1" parent="1">
          <mxGeometry x="560" y="360" width="80" height="80" as="geometry" />
        </mxCell>
      </root>
    </mxGraphModel>
  </diagram>
</mxfile>
